<?xml version="1.0" encoding="UTF-8" standalone="no"?>
<!-- Created with Inkscape (http://www.inkscape.org/) -->

<svg
   xmlns:dc="http://purl.org/dc/elements/1.1/"
   xmlns:cc="http://creativecommons.org/ns#"
   xmlns:rdf="http://www.w3.org/1999/02/22-rdf-syntax-ns#"
   xmlns:svg="http://www.w3.org/2000/svg"
   xmlns="http://www.w3.org/2000/svg"
   xmlns:sodipodi="http://sodipodi.sourceforge.net/DTD/sodipodi-0.dtd"
   xmlns:inkscape="http://www.inkscape.org/namespaces/inkscape"
   version="1.1"
   id="svg10520"
   xml:space="preserve"
   width="800"
   height="800"
   viewBox="0 0 800 800"
   sodipodi:docname="British-flag-sticker-3-publicdomainvectors.org.svg"
   inkscape:version="0.92.4 (5da689c313, 2019-01-14)"><metadata
     id="metadata10526"><rdf:RDF><cc:Work
         rdf:about=""><dc:format>image/svg+xml</dc:format><dc:type
           rdf:resource="http://purl.org/dc/dcmitype/StillImage" /><dc:title></dc:title></cc:Work></rdf:RDF></metadata><defs
     id="defs10524"><clipPath
       clipPathUnits="userSpaceOnUse"
       id="clipPath10536"><path
         d="M 0,600 H 600 V 0 H 0 Z"
         id="path10534"
         inkscape:connector-curvature="0" /></clipPath><radialGradient
       fx="0"
       fy="0"
       cx="0"
       cy="0"
       r="1"
       gradientUnits="userSpaceOnUse"
       gradientTransform="matrix(232.38692,0,0,-232.38692,302.14844,326.2666)"
       spreadMethod="pad"
       id="radialGradient10556"><stop
         style="stop-opacity:1;stop-color:#ffffff"
         offset="0"
         id="stop10550" /><stop
         style="stop-opacity:1;stop-color:#ffffff"
         offset="0.67194507"
         id="stop10552" /><stop
         style="stop-opacity:1;stop-color:#f2f2f2"
         offset="1"
         id="stop10554" /></radialGradient></defs><sodipodi:namedview
     pagecolor="#ffffff"
     bordercolor="#666666"
     borderopacity="1"
     objecttolerance="10"
     gridtolerance="10"
     guidetolerance="10"
     inkscape:pageopacity="0"
     inkscape:pageshadow="2"
     inkscape:window-width="797"
     inkscape:window-height="480"
     id="namedview10522"
     showgrid="false"
     inkscape:zoom="0.295"
     inkscape:cx="400"
     inkscape:cy="400"
     inkscape:window-x="0"
     inkscape:window-y="0"
     inkscape:window-maximized="0"
     inkscape:current-layer="g10528" /><g
     id="g10528"
     inkscape:groupmode="layer"
     inkscape:label="British-flag-sticker-3-publicdomainvectors.org"
     transform="matrix(1.3333333,0,0,-1.3333333,0,800)"><g
       id="g10530"><g
         id="g10532"
         clip-path="url(#clipPath10536)"><g
           id="g10538"><g
             id="g10540"><g
               id="g10546"><g
                 id="g10548"><path
                   d="m 85.938,326.263 c 0,-24.416 -16.612,-51.221 -9.436,-73.284 7.458,-22.841 36.939,-34.674 50.789,-53.715 14.032,-19.23 16.237,-50.849 35.487,-64.846 19.011,-13.854 49.725,-6.323 72.572,-13.786 22.083,-7.177 42.35,-31.592 66.831,-31.592 24.421,0 44.679,24.415 66.773,31.592 22.846,7.463 53.552,-0.068 72.593,13.786 19.225,13.997 21.49,45.616 35.463,64.846 13.841,19.041 43.357,30.874 50.787,53.715 7.17,22.063 -9.441,48.868 -9.441,73.284 0,24.452 16.611,51.262 9.441,73.324 -7.43,22.843 -36.946,34.675 -50.787,53.707 -13.973,19.197 -16.238,50.825 -35.463,64.822 -19.041,13.873 -49.747,6.356 -72.593,13.785 -22.094,7.205 -42.352,31.592 -66.773,31.592 -24.481,0 -44.748,-24.387 -66.831,-31.592 -22.847,-7.429 -53.561,0.088 -72.572,-13.785 -19.25,-13.997 -21.455,-45.625 -35.487,-64.822 -13.85,-19.032 -43.332,-30.864 -50.789,-53.707 -7.176,-22.062 9.436,-48.872 9.436,-73.324"
                   style="fill:url(#radialGradient10556);stroke:none"
                   id="path10558"
                   inkscape:connector-curvature="0" /></g></g></g></g><path
           d="m 372.793,148.018 c 8.86,1.597 17.684,2.061 25.757,2.46 11.24,0.556 22.862,1.128 27.856,4.757 5.12,3.732 9.264,14.704 13.269,25.318 3.501,9.263 7.417,19.581 13.306,29.045 l -80.188,40.093 z"
           style="fill:#273376;fill-opacity:1;fill-rule:nonzero;stroke:none"
           id="path10560"
           inkscape:connector-curvature="0" /><path
           d="m 227.823,503.917 c -7.594,-1.11 -15.08,-1.495 -22.013,-1.836 -11.248,-0.556 -22.878,-1.129 -27.855,-4.759 -5.154,-3.752 -9.283,-14.684 -13.275,-25.261 -3.646,-9.657 -7.736,-20.451 -14.064,-30.239 l 77.207,-38.604 z"
           style="fill:#273376;fill-opacity:1;fill-rule:nonzero;stroke:none"
           id="path10562"
           inkscape:connector-curvature="0" /><path
           d="m 452.815,443.23 c -5.794,9.381 -9.675,19.585 -13.142,28.764 -4.005,10.606 -8.149,21.572 -13.28,25.312 -5.005,3.646 -16.646,4.219 -27.899,4.775 -8.055,0.396 -16.854,0.857 -25.701,2.448 V 403.218 Z"
           style="fill:#273376;fill-opacity:1;fill-rule:nonzero;stroke:none"
           id="path10564"
           inkscape:connector-curvature="0" /><path
           d="m 150.437,210.999 c 6.418,-9.848 10.559,-20.762 14.242,-30.514 3.992,-10.585 8.121,-21.528 13.24,-25.25 4.986,-3.629 16.6,-4.201 27.835,-4.757 6.949,-0.344 14.456,-0.731 22.069,-1.85 v 101.064 z"
           style="fill:#273376;fill-opacity:1;fill-rule:nonzero;stroke:none"
           id="path10566"
           inkscape:connector-curvature="0" /><path
           d="m 498.445,398.942 c -3.977,4.291 -9.686,8.835 -15.281,13.283 -1.422,1.132 -2.879,2.299 -4.346,3.485 l -33.535,-16.768 z"
           style="fill:#ffffff;fill-opacity:1;fill-rule:nonzero;stroke:none"
           id="path10568"
           inkscape:connector-curvature="0" /><path
           d="m 445.283,398.942 33.535,16.768 h -10e-4 l -33.536,-16.768 z"
           style="fill:#ffffff;fill-opacity:1;fill-rule:nonzero;stroke:none"
           id="path10570"
           inkscape:connector-curvature="0" /><path
           d="m 497.196,252.326 c 0.55,0.552 1.064,1.101 1.558,1.646 h -4.849 z"
           style="fill:#ffffff;fill-opacity:1;fill-rule:nonzero;stroke:none"
           id="path10572"
           inkscape:connector-curvature="0" /><path
           d="m 372.793,253.972 v -4.281 l 80.188,-40.093 c 1.013,1.626 2.068,3.234 3.206,4.8 6.56,9.027 14.962,16.272 22.9,22.669 l -33.807,16.905 z"
           style="fill:#ffffff;fill-opacity:1;fill-rule:nonzero;stroke:none"
           id="path10574"
           inkscape:connector-curvature="0" /><path
           d="m 372.793,398.942 h 23.865 l 65.02,32.51 c -1.925,2.13 -3.778,4.348 -5.491,6.703 -1.204,1.653 -2.308,3.355 -3.372,5.075 l -80.022,-40.012 z"
           style="fill:#ffffff;fill-opacity:1;fill-rule:nonzero;stroke:none"
           id="path10576"
           inkscape:connector-curvature="0" /><path
           d="m 106.141,399.229 c -0.09,-0.096 -0.185,-0.192 -0.274,-0.287 h 0.848 z"
           style="fill:#ffffff;fill-opacity:1;fill-rule:nonzero;stroke:none"
           id="path10578"
           inkscape:connector-curvature="0" /><path
           d="m 155.339,398.942 -31.263,15.631 h -10e-4 l 31.262,-15.631 z"
           style="fill:#ffffff;fill-opacity:1;fill-rule:nonzero;stroke:none"
           id="path10580"
           inkscape:connector-curvature="0" /><path
           d="m 227.823,253.972 h -23.857 l -62.72,-31.361 c 2.425,-2.575 4.747,-5.289 6.866,-8.203 0.815,-1.117 1.576,-2.259 2.325,-3.409 l 77.386,38.693 z"
           style="fill:#ffffff;fill-opacity:1;fill-rule:nonzero;stroke:none"
           id="path10582"
           inkscape:connector-curvature="0" /><path
           d="m 227.823,398.942 v 4.276 l -77.207,38.604 c -0.811,-1.256 -1.648,-2.499 -2.537,-3.717 -6.852,-9.412 -15.746,-16.915 -24.003,-23.532 l 31.263,-15.631 z"
           style="fill:#ffffff;fill-opacity:1;fill-rule:nonzero;stroke:none"
           id="path10584"
           inkscape:connector-curvature="0" /><path
           d="m 105.554,253.972 c 3.989,-4.393 9.844,-9.063 15.586,-13.634 0.877,-0.698 1.773,-1.414 2.67,-2.133 l 31.532,15.767 z"
           style="fill:#ffffff;fill-opacity:1;fill-rule:nonzero;stroke:none"
           id="path10586"
           inkscape:connector-curvature="0" /><path
           d="m 445.283,398.942 33.535,16.768"
           style="fill:none;stroke:#110f0d;stroke-width:0.75;stroke-linecap:round;stroke-linejoin:round;stroke-miterlimit:4;stroke-dasharray:none;stroke-opacity:1"
           id="path10588"
           inkscape:connector-curvature="0" /><path
           d="m 124.076,414.573 31.263,-15.631"
           style="fill:none;stroke:#110f0d;stroke-width:0.75;stroke-linecap:round;stroke-linejoin:round;stroke-miterlimit:4;stroke-dasharray:none;stroke-opacity:1"
           id="path10590"
           inkscape:connector-curvature="0" /><path
           d="m 155.337,398.942 -31.262,15.631 c -0.986,-0.79 -1.967,-1.573 -2.93,-2.339 -5.466,-4.354 -11.036,-8.794 -15.004,-13.005 l 0.574,-0.287 z"
           style="fill:#d21d2c;fill-opacity:1;fill-rule:nonzero;stroke:none"
           id="path10592"
           inkscape:connector-curvature="0" /><path
           d="m 445.281,398.942 33.536,16.768 c -5.78,4.67 -11.778,9.804 -17.139,15.742 l -65.02,-32.51 z"
           style="fill:#d21d2c;fill-opacity:1;fill-rule:nonzero;stroke:none"
           id="path10594"
           inkscape:connector-curvature="0" /><path
           d="M 155.342,253.972 123.81,238.205 c 5.795,-4.639 11.903,-9.72 17.436,-15.594 l 62.72,31.361 z"
           style="fill:#d21d2c;fill-opacity:1;fill-rule:nonzero;stroke:none"
           id="path10596"
           inkscape:connector-curvature="0" /><path
           d="m 445.28,253.972 33.807,-16.905 c 1.378,1.113 2.745,2.206 4.084,3.271 5.028,4.005 10.153,8.085 14.025,11.988 l -3.291,1.646 z"
           style="fill:#d21d2c;fill-opacity:1;fill-rule:nonzero;stroke:none"
           id="path10598"
           inkscape:connector-curvature="0" /><path
           d="m 227.823,403.218 v -4.276 h -72.484 -0.002 -48.622 -0.848 c -2.374,-2.563 -4.136,-5.037 -4.891,-7.349 -1.479,-4.546 0.333,-13.096 2.562,-21.646 h 153.278 v 143.264 c -4.284,-2.238 -8.771,-4.245 -13.484,-5.781 l -0.018,-0.012 c -5.123,-1.665 -10.332,-2.746 -15.491,-3.501 z"
           style="fill:#ffffff;fill-opacity:1;fill-rule:nonzero;stroke:none"
           id="path10600"
           inkscape:connector-curvature="0" /><path
           d="m 343.8,369.947 h 156.952 c 2.227,8.553 4.049,17.111 2.561,21.68 -0.749,2.3 -2.502,4.763 -4.868,7.315 h -53.162 -0.002 -48.623 -23.865 v 4.276 101.311 c -3.945,0.71 -7.898,1.622 -11.804,2.892 -6.092,1.986 -11.811,4.746 -17.189,7.791 z"
           style="fill:#ffffff;fill-opacity:1;fill-rule:nonzero;stroke:none"
           id="path10602"
           inkscape:connector-curvature="0" /><path
           d="M 256.816,282.964 H 103.633 c -2.268,-8.666 -4.156,-17.386 -2.649,-22.017 0.718,-2.196 2.361,-4.543 4.57,-6.975 h 49.788 48.624 23.857 v -4.28 -101.064 c 5.169,-0.759 10.386,-1.846 15.517,-3.521 4.705,-1.529 9.192,-3.533 13.476,-5.772 z"
           style="fill:#ffffff;fill-opacity:1;fill-rule:nonzero;stroke:none"
           id="path10604"
           inkscape:connector-curvature="0" /><path
           d="m 343.8,282.964 v -145.63 c 5.383,3.046 11.105,5.806 17.199,7.786 3.897,1.272 7.849,2.186 11.794,2.898 v 101.673 4.281 h 72.487 48.625 4.849 c 2.206,2.428 3.848,4.776 4.562,6.972 1.504,4.626 -0.383,13.353 -2.656,22.02 z"
           style="fill:#ffffff;fill-opacity:1;fill-rule:nonzero;stroke:none"
           id="path10606"
           inkscape:connector-curvature="0" /><path
           d="M 256.816,369.947 H 103.538 c 0.505,-1.941 1.032,-3.883 1.547,-5.776 3.093,-11.401 6.598,-24.324 6.598,-37.908 0,-13.563 -3.504,-26.474 -6.595,-37.87 -0.484,-1.782 -0.977,-3.604 -1.455,-5.429 H 256.816 V 139.335 c 6.847,-3.576 13.176,-7.759 19.019,-11.63 9.589,-6.352 19.507,-12.92 26.346,-12.92 6.787,0 16.681,6.553 26.25,12.898 4.791,3.173 9.906,6.559 15.369,9.651 v 145.63 h 156.86 c -0.477,1.824 -0.972,3.644 -1.455,5.424 -3.09,11.394 -6.595,24.307 -6.595,37.875 0,13.584 3.505,26.509 6.599,37.917 0.513,1.891 1.037,3.829 1.543,5.767 H 343.8 v 145.265 c -5.452,3.085 -10.555,6.463 -15.336,9.63 -9.577,6.345 -19.481,12.905 -26.283,12.905 -6.855,0 -16.78,-6.574 -26.379,-12.927 -5.832,-3.862 -12.148,-8.035 -18.986,-11.609 z"
           style="fill:#d21d2c;fill-opacity:1;fill-rule:nonzero;stroke:none"
           id="path10608"
           inkscape:connector-curvature="0" /></g></g></g></svg>